<svg xmlns="http://www.w3.org/2000/svg" width="1600" height="900" viewBox="0 0 1600 900" role="img" aria-label="M’┐Įthodologie de veille et travail en profondeur">
  <defs>
    <linearGradient id="sm-bg" x1="0%" y1="0%" x2="100%" y2="100%">
      <stop offset="0%" stop-color="#1a1510"/>
      <stop offset="100%" stop-color="#252018"/>
    </linearGradient>
    <linearGradient id="sm-glow" x1="0%" y1="0%" x2="100%" y2="100%">
      <stop offset="0%" stop-color="#fcd34d"/><stop offset="100%" stop-color="#ea580c"/>
    </linearGradient>
  </defs>
  <rect width="1600" height="900" fill="url(#sm-bg)"/>
  <ellipse cx="1180" cy="220" rx="300" ry="150" fill="#ea580c" opacity="0.1"/>
  <!-- Table -->
  <ellipse cx="820" cy="560" rx="380" ry="80" fill="#292524" stroke="#78716c" stroke-width="3"/>
  <!-- Silhouettes simplifi’┐Įes -->
  <g fill="#44403c" stroke="#fde68a" stroke-width="2" opacity="0.95">
    <circle cx="580" cy="420" r="36"/><path d="M544 520 Q580 480 616 520 V620 H544 Z"/>
    <circle cx="820" cy="380" r="40"/><path d="M778 500 Q820 450 862 500 V640 H778 Z"/>
    <circle cx="1060" cy="420" r="36"/><path d="M1024 520 Q1060 480 1096 520 V620 H1024 Z"/>
  </g>
  <!-- Notes -->
  <rect x="660" y="500" width="80" height="56" rx="6" fill="#422006" stroke="#fdba74" stroke-width="2" transform="rotate(-8 700 528)"/>
</svg>
