<svg xmlns="http://www.w3.org/2000/svg" width="640" height="400" viewBox="0 0 640 400" role="img" aria-labelledby="ml-t ml-d">
  <title id="ml-t">Classification images - IA</title>
  <desc id="ml-d">Reseau et cadre image style futuriste.</desc>
  <defs>
    <linearGradient id="ml-bg" x1="0%" y1="0%" x2="100%" y2="100%">
      <stop offset="0%" stop-color="#0f172a"/>
      <stop offset="40%" stop-color="#1e1b4b"/>
      <stop offset="100%" stop-color="#4c1d95"/>
    </linearGradient>
  </defs>
  <rect width="640" height="400" rx="24" fill="url(#ml-bg)"/>
  <rect x="32" y="32" width="576" height="48" rx="12" fill="rgba(15,23,42,0.72)" stroke="rgba(167,139,250,0.4)" stroke-width="1"/>
  <rect x="48" y="46" width="130" height="20" rx="6" fill="rgba(34,211,238,0.35)"/>
  <rect x="190" y="46" width="80" height="20" rx="6" fill="rgba(167,139,250,0.3)"/>
  <rect x="32" y="96" width="280" height="272" rx="16" fill="rgba(15,23,42,0.55)" stroke="rgba(167,139,250,0.25)"/>
  <rect x="52" y="116" width="240" height="180" rx="12" fill="rgba(30,27,75,0.6)" stroke="rgba(34,211,238,0.3)"/>
  <circle cx="172" cy="200" r="40" fill="none" stroke="rgba(34,211,238,0.4)" stroke-width="2" stroke-dasharray="8 6"/>
  <rect x="52" y="310" width="100" height="8" rx="4" fill="rgba(167,139,250,0.5)"/>
  <rect x="160" y="310" width="60" height="8" rx="4" fill="rgba(148,163,184,0.25)"/>
  <rect x="328" y="96" width="280" height="272" rx="16" fill="rgba(15,23,42,0.45)" stroke="rgba(34,211,238,0.15)"/>
  <g stroke="rgba(167,139,250,0.35)" stroke-width="1.5" fill="none">
    <line x1="360" y1="140" x2="420" y2="200"/><line x1="420" y1="140" x2="480" y2="200"/><line x1="480" y1="140" x2="540" y2="200"/>
    <line x1="360" y1="200" x2="420" y2="260"/><line x1="420" y1="200" x2="480" y2="260"/><line x1="480" y1="200" x2="540" y2="260"/>
    <line x1="360" y1="260" x2="420" y2="320"/><line x1="420" y1="260" x2="480" y2="320"/><line x1="480" y1="260" x2="540" y2="320"/>
  </g>
  <circle cx="480" cy="220" r="12" fill="#22d3ee" opacity="0.85"/>
  <text x="360" y="360" fill="#c4b5fd" font-family="system-ui,sans-serif" font-size="12" font-weight="600">ML5 · TensorFlow.js</text>
</svg>
