<svg xmlns="http://www.w3.org/2000/svg" width="640" height="400" viewBox="0 0 640 400" role="img" aria-labelledby="barb-t barb-d">
  <title id="barb-t">FS Barber - tableau de bord salon</title>
  <desc id="barb-d">Dashboard reservations style futuriste ambre et cyan.</desc>
  <defs>
    <linearGradient id="barb-bg" x1="0%" y1="0%" x2="100%" y2="100%">
      <stop offset="0%" stop-color="#0f172a"/>
      <stop offset="50%" stop-color="#1c1917"/>
      <stop offset="100%" stop-color="#292524"/>
    </linearGradient>
  </defs>
  <rect width="640" height="400" rx="24" fill="url(#barb-bg)"/>
  <rect x="32" y="32" width="576" height="48" rx="12" fill="rgba(15,23,42,0.75)" stroke="rgba(251,191,36,0.35)" stroke-width="1"/>
  <rect x="48" y="46" width="100" height="20" rx="6" fill="rgba(251,191,36,0.4)"/>
  <rect x="160" y="46" width="72" height="20" rx="6" fill="rgba(34,211,238,0.25)"/>
  <rect x="32" y="96" width="200" height="272" rx="16" fill="rgba(15,23,42,0.6)" stroke="rgba(251,191,36,0.22)"/>
  <text x="52" y="132" fill="#94a3b8" font-family="system-ui,sans-serif" font-size="13" font-weight="600">Agenda</text>
  <rect x="52" y="148" width="160" height="40" rx="8" fill="rgba(251,191,36,0.12)" stroke="rgba(251,191,36,0.35)"/>
  <rect x="52" y="200" width="160" height="40" rx="8" fill="rgba(34,211,238,0.08)" stroke="rgba(34,211,238,0.25)"/>
  <rect x="52" y="252" width="160" height="40" rx="8" fill="rgba(148,163,184,0.08)" stroke="rgba(148,163,184,0.2)"/>
  <rect x="248" y="96" width="360" height="272" rx="16" fill="rgba(15,23,42,0.5)" stroke="rgba(34,211,238,0.18)"/>
  <rect x="268" y="116" width="140" height="100" rx="12" fill="rgba(251,191,36,0.1)" stroke="rgba(251,191,36,0.3)"/>
  <rect x="422" y="116" width="166" height="100" rx="12" fill="rgba(34,211,238,0.08)" stroke="rgba(34,211,238,0.22)"/>
  <rect x="268" y="232" width="320" height="12" rx="4" fill="rgba(148,163,184,0.2)"/>
  <rect x="268" y="256" width="240" height="12" rx="4" fill="rgba(148,163,184,0.15)"/>
  <path d="M300 320 L320 280 L340 320 M310 300 L330 300" fill="none" stroke="#fbbf24" stroke-width="3" stroke-linecap="round"/>
  <text x="360" y="312" fill="#e7e5e4" font-family="system-ui,sans-serif" font-size="14" font-weight="700">FS BARBER</text>
  <text x="360" y="332" fill="#78716c" font-family="system-ui,sans-serif" font-size="11">Dashboard e-commerce</text>
</svg>
