<svg xmlns="http://www.w3.org/2000/svg" width="640" height="400" viewBox="0 0 640 400" role="img" aria-labelledby="met-t met-d">
  <title id="met-t">App Meteo - previsions</title>
  <desc id="met-d">Nuages temperature et courbes style mission control.</desc>
  <defs>
    <linearGradient id="met-bg" x1="0%" y1="0%" x2="100%" y2="100%">
      <stop offset="0%" stop-color="#0c4a6e"/>
      <stop offset="50%" stop-color="#0f172a"/>
      <stop offset="100%" stop-color="#164e63"/>
    </linearGradient>
  </defs>
  <rect width="640" height="400" rx="24" fill="url(#met-bg)"/>
  <rect x="32" y="32" width="576" height="48" rx="12" fill="rgba(15,23,42,0.7)" stroke="rgba(56,189,248,0.35)" stroke-width="1"/>
  <rect x="48" y="46" width="88" height="20" rx="6" fill="rgba(56,189,248,0.45)"/>
  <circle cx="520" cy="56" r="22" fill="rgba(250,204,21,0.35)" stroke="rgba(250,204,21,0.6)" stroke-width="2"/>
  <path d="M510 56 L518 64 L532 48" fill="none" stroke="#fbbf24" stroke-width="2" stroke-linecap="round"/>
  <ellipse cx="200" cy="90" rx="70" ry="22" fill="rgba(148,163,184,0.25)"/>
  <ellipse cx="240" cy="88" rx="55" ry="18" fill="rgba(148,163,184,0.2)"/>
  <rect x="32" y="120" width="280" height="248" rx="16" fill="rgba(15,23,42,0.55)" stroke="rgba(56,189,248,0.22)"/>
  <text x="52" y="156" fill="#94a3b8" font-family="system-ui,sans-serif" font-size="13" font-weight="600">Previsions</text>
  <text x="52" y="210" fill="#38bdf8" font-family="system-ui,sans-serif" font-size="42" font-weight="700">24</text>
  <text x="108" y="210" fill="#64748b" font-family="system-ui,sans-serif" font-size="18">C</text>
  <rect x="52" y="230" width="240" height="6" rx="3" fill="rgba(56,189,248,0.35)"/>
  <rect x="328" y="120" width="280" height="248" rx="16" fill="rgba(15,23,42,0.45)" stroke="rgba(34,211,238,0.18)"/>
  <polyline points="348,280 380,240 412,260 444,220 476,235 508,200 580,180" fill="none" stroke="rgba(34,211,238,0.7)" stroke-width="3" stroke-linecap="round" stroke-linejoin="round"/>
  <circle cx="476" cy="235" r="6" fill="#22d3ee"/>
  <text x="348" y="340" fill="#64748b" font-family="system-ui,sans-serif" font-size="11">Node · Express · SQLite</text>
</svg>
