<svg xmlns="http://www.w3.org/2000/svg" width="640" height="400" viewBox="0 0 640 400" role="img" aria-labelledby="p4-t p4-d">
  <title id="p4-t">Puissance 4 - grille jeu</title>
  <desc id="p4-d">Plateau neon style arcade.</desc>
  <defs>
    <linearGradient id="p4-bg" x1="0%" y1="0%" x2="100%" y2="100%">
      <stop offset="0%" stop-color="#0f172a"/>
      <stop offset="100%" stop-color="#1e1b4b"/>
    </linearGradient>
  </defs>
  <rect width="640" height="400" rx="24" fill="url(#p4-bg)"/>
  <rect x="32" y="32" width="576" height="48" rx="12" fill="rgba(15,23,42,0.72)" stroke="rgba(34,211,238,0.3)" stroke-width="1"/>
  <rect x="48" y="46" width="120" height="20" rx="6" fill="rgba(236,72,153,0.35)"/>
  <rect x="120" y="110" width="400" height="240" rx="16" fill="rgba(30,58,138,0.5)" stroke="rgba(34,211,238,0.35)" stroke-width="2"/>
  <g>
    <circle cx="155" cy="150" r="22" fill="rgba(15,23,42,0.9)" stroke="rgba(34,211,238,0.25)"/>
    <circle cx="212" cy="150" r="22" fill="#f472b6"/>
    <circle cx="269" cy="150" r="22" fill="rgba(15,23,42,0.9)" stroke="rgba(34,211,238,0.25)"/>
    <circle cx="326" cy="150" r="22" fill="#22d3ee"/>
    <circle cx="383" cy="150" r="22" fill="#22d3ee"/>
    <circle cx="440" cy="150" r="22" fill="rgba(15,23,42,0.9)" stroke="rgba(34,211,238,0.25)"/>
    <circle cx="497" cy="150" r="22" fill="#f472b6"/>
  </g>
  <g>
    <circle cx="155" cy="210" r="22" fill="#22d3ee"/>
    <circle cx="212" cy="210" r="22" fill="#f472b6"/>
    <circle cx="269" cy="210" r="22" fill="#22d3ee"/>
    <circle cx="326" cy="210" r="22" fill="rgba(15,23,42,0.9)" stroke="rgba(34,211,238,0.25)"/>
    <circle cx="383" cy="210" r="22" fill="#f472b6"/>
    <circle cx="440" cy="210" r="22" fill="rgba(15,23,42,0.9)" stroke="rgba(34,211,238,0.25)"/>
    <circle cx="497" cy="210" r="22" fill="rgba(15,23,42,0.9)" stroke="rgba(34,211,238,0.25)"/>
  </g>
  <text x="180" y="380" fill="#e9d5ff" font-family="system-ui,sans-serif" font-size="14" font-weight="700">Python · Tkinter · Web</text>
</svg>
