<svg xmlns="http://www.w3.org/2000/svg" width="640" height="400" viewBox="0 0 640 400" role="img" aria-labelledby="bot-t bot-d">
  <title id="bot-t">Chatbot IA - conversation</title>
  <desc id="bot-d">Bulles et onde cerebrale style HUD.</desc>
  <defs>
    <linearGradient id="bot-bg" x1="0%" y1="0%" x2="100%" y2="100%">
      <stop offset="0%" stop-color="#0f172a"/>
      <stop offset="55%" stop-color="#14532d"/>
      <stop offset="100%" stop-color="#022c22"/>
    </linearGradient>
  </defs>
  <rect width="640" height="400" rx="24" fill="url(#bot-bg)"/>
  <rect x="32" y="32" width="576" height="48" rx="12" fill="rgba(15,23,42,0.72)" stroke="rgba(52,211,153,0.35)" stroke-width="1"/>
  <rect x="48" y="46" width="95" height="20" rx="6" fill="rgba(52,211,153,0.4)"/>
  <rect x="32" y="96" width="360" height="272" rx="16" fill="rgba(15,23,42,0.5)" stroke="rgba(34,211,238,0.18)"/>
  <rect x="52" y="120" width="240" height="48" rx="12" fill="rgba(52,211,153,0.15)" stroke="rgba(52,211,153,0.35)"/>
  <rect x="92" y="188" width="260" height="52" rx="12" fill="rgba(34,211,238,0.12)" stroke="rgba(34,211,238,0.3)"/>
  <rect x="52" y="260" width="200" height="44" rx="12" fill="rgba(52,211,153,0.12)" stroke="rgba(52,211,153,0.25)"/>
  <rect x="408" y="96" width="200" height="272" rx="16" fill="rgba(15,23,42,0.45)" stroke="rgba(167,139,250,0.22)"/>
  <circle cx="508" cy="200" r="64" fill="none" stroke="rgba(167,139,250,0.35)" stroke-width="2"/>
  <path d="M460 200 Q508 140 556 200 Q508 260 460 200" fill="rgba(167,139,250,0.12)" stroke="rgba(167,139,250,0.4)" stroke-width="2"/>
  <circle cx="508" cy="200" r="8" fill="#34d399"/>
  <text x="428" y="320" fill="#94a3b8" font-family="system-ui,sans-serif" font-size="11">NLP · Flask</text>
</svg>
