<svg xmlns="http://www.w3.org/2000/svg" width="640" height="400" viewBox="0 0 640 400" role="img" aria-labelledby="maui-t maui-d">
  <title id="maui-t">MAUI Coach - app mobile</title>
  <desc id="maui-d">Telephone et metriques sante style HUD.</desc>
  <defs>
    <linearGradient id="maui-bg" x1="0%" y1="0%" x2="100%" y2="100%">
      <stop offset="0%" stop-color="#0f172a"/>
      <stop offset="50%" stop-color="#172554"/>
      <stop offset="100%" stop-color="#1e3a8a"/>
    </linearGradient>
  </defs>
  <rect width="640" height="400" rx="24" fill="url(#maui-bg)"/>
  <rect x="32" y="32" width="576" height="48" rx="12" fill="rgba(15,23,42,0.7)" stroke="rgba(59,130,246,0.35)" stroke-width="1"/>
  <rect x="48" y="46" width="90" height="20" rx="6" fill="rgba(59,130,246,0.45)"/>
  <rect x="32" y="96" width="300" height="272" rx="16" fill="rgba(15,23,42,0.55)" stroke="rgba(59,130,246,0.2)"/>
  <text x="52" y="132" fill="#94a3b8" font-family="system-ui,sans-serif" font-size="13" font-weight="600">Coach sante</text>
  <rect x="52" y="148" width="256" height="10" rx="4" fill="rgba(59,130,246,0.35)"/>
  <rect x="52" y="170" width="180" height="10" rx="4" fill="rgba(148,163,184,0.2)"/>
  <rect x="52" y="200" width="260" height="88" rx="12" fill="rgba(59,130,246,0.1)" stroke="rgba(59,130,246,0.25)"/>
  <rect x="52" y="304" width="120" height="48" rx="10" fill="rgba(34,211,238,0.1)" stroke="rgba(34,211,238,0.3)"/>
  <rect x="352" y="96" width="256" height="272" rx="20" fill="rgba(15,23,42,0.85)" stroke="rgba(34,211,238,0.35)" stroke-width="2"/>
  <rect x="368" y="112" width="224" height="24" rx="12" fill="#020617"/>
  <rect x="380" y="152" width="200" height="8" rx="4" fill="rgba(59,130,246,0.5)"/>
  <rect x="380" y="172" width="140" height="8" rx="4" fill="rgba(148,163,184,0.25)"/>
  <circle cx="480" cy="240" r="44" fill="none" stroke="rgba(34,211,238,0.45)" stroke-width="5" stroke-dasharray="50 30"/>
  <rect x="380" y="300" width="200" height="40" rx="10" fill="rgba(34,211,238,0.12)" stroke="rgba(34,211,238,0.3)"/>
  <text x="380" y="360" fill="#e2e8f0" font-family="system-ui,sans-serif" font-size="12" font-weight="700">.NET MAUI · C#</text>
</svg>
